# xmcd CD database file generated by LOLA_Freedb v0.9beta0
# 
# Track frame offsets:
#      150
#      16829
#      30779
#      43414
#      56937
#      71772
#      82446
#      98053
#      111609
#      121871
#      135025
#      149608
#      167640
#      182603
#      195111
#      212225
# 
# Disc length: 3030 seconds
# 
# Revision: 0 
# Processed by: cddbd v1.5.2PL0 Copyright (c) Steve Scherf et al.
# Submitted via: LOLA_Freedb v0.9beta0
# 
DISCID=e30bd410
DTITLE=Tex Robinson - Heart Beat
DYEAR=1900
DGENRE=
TTITLE0=Tex Robinson - Workin' Man Blues
TTITLE1=Tex Robinson - Games People Play
TTITLE2=Tex Robinson - Gone Gone Gone
TTITLE3=Tex Robinson - I Need Some Honky Tonks Tonight
TTITLE4=Tex Robinson - Let It Be Me
TTITLE5=Tex Robinson - Corvette Song (The One I Loved Back Then)
TTITLE6=Tex Robinson - Sunny Days - California Wait For Me
TTITLE7=Tex Robinson - There Goes My Everything
TTITLE8=Tex Robinson - Mama Tried
TTITLE9=Tex Robinson - Those Lonely Nights
TTITLE10=Tex Robinson - Tulsa Time
TTITLE11=Tex Robinson - Es is no net z' spät
TTITLE12=Tex Robinson - Wanting Eyes
TTITLE13=Tex Robinson - Love Is A Fantasy
TTITLE14=Tex Robinson - I Fall To Pieces
TTITLE15=Tex Robinson - Big Heart
EXTD=
EXTT0=
EXTT1=
EXTT2=
EXTT3=
EXTT4=
EXTT5=
EXTT6=
EXTT7=
EXTT8=
EXTT9=
EXTT10=
EXTT11=
EXTT12=
EXTT13=
EXTT14=
EXTT15=
PLAYORDER=
